<svg width="145" height="39" viewBox="0 0 145 39" fill="none" xmlns="http://www.w3.org/2000/svg">
<path d="M15.6865 12.2024C15.5991 11.2411 15.2102 10.4939 14.5198 9.96083C13.8382 9.41901 12.8638 9.1481 11.5966 9.1481C10.7577 9.1481 10.0585 9.25734 9.49925 9.47582C8.93996 9.69429 8.52048 9.99579 8.24083 10.3803C7.96119 10.7561 7.81699 11.1887 7.80825 11.678C7.79078 12.08 7.86943 12.434 8.04421 12.7398C8.22773 13.0457 8.4899 13.3166 8.83072 13.5526C9.18028 13.7798 9.59975 13.9808 10.0891 14.1556C10.5785 14.3303 11.1291 14.4833 11.7408 14.6144L14.0479 15.1387C15.3762 15.4271 16.5473 15.8116 17.561 16.2922C18.5835 16.7729 19.4399 17.3453 20.1303 18.0095C20.8294 18.6736 21.3581 19.4383 21.7164 20.3034C22.0747 21.1686 22.2582 22.1386 22.2669 23.2135C22.2582 24.9089 21.83 26.364 20.9823 27.5787C20.1346 28.7934 18.9155 29.7241 17.325 30.3708C15.7433 31.0175 13.8338 31.3408 11.5966 31.3408C9.35069 31.3408 7.39315 31.0044 5.724 30.3315C4.05485 29.6586 2.75711 28.6361 1.83077 27.2641C0.904435 25.892 0.428159 24.1574 0.401942 22.06H6.61538C6.66781 22.9252 6.8994 23.6461 7.31013 24.2229C7.72086 24.7997 8.28453 25.2366 9.00113 25.5337C9.72647 25.8309 10.5654 25.9794 11.518 25.9794C12.3919 25.9794 13.1347 25.8615 13.7464 25.6255C14.3669 25.3896 14.8432 25.0618 15.1752 24.6424C15.5073 24.2229 15.6777 23.7423 15.6865 23.2004C15.6777 22.6936 15.5204 22.261 15.2146 21.9027C14.9087 21.5357 14.4368 21.221 13.7988 20.9589C13.1696 20.688 12.3656 20.4389 11.3869 20.2117L8.58166 19.5563C6.25708 19.0232 4.42626 18.1624 3.08919 16.9739C1.75212 15.7766 1.08795 14.1599 1.09669 12.1237C1.08795 10.4633 1.53364 9.00828 2.43376 7.7586C3.33388 6.50892 4.57919 5.53452 6.16969 4.8354C7.76019 4.13628 9.57353 3.78672 11.6097 3.78672C13.6896 3.78672 15.4942 4.14065 17.0235 4.84851C18.5616 5.54763 19.7545 6.53077 20.6022 7.79793C21.4499 9.06508 21.8824 10.5332 21.8999 12.2024H15.6865ZM31.9541 19.5169V31H25.5441V4.15376H31.7444V14.5619H31.9672C32.4217 13.321 33.1645 12.351 34.1957 11.6518C35.2356 10.9527 36.5072 10.6031 38.0103 10.6031C39.426 10.6031 40.6582 10.9178 41.7069 11.547C42.7556 12.1674 43.5683 13.0457 44.1451 14.1818C44.7306 15.3178 45.019 16.6462 45.0102 18.1668V31H38.6002V19.4252C38.6089 18.3066 38.3293 17.4327 37.7612 16.8035C37.1932 16.1743 36.3936 15.8597 35.3624 15.8597C34.6895 15.8597 34.0952 16.0082 33.5796 16.3054C33.0727 16.5937 32.6751 17.0088 32.3867 17.5507C32.1071 18.0925 31.9629 18.7479 31.9541 19.5169ZM58.4104 31.3801C56.2956 31.3801 54.4778 30.9476 52.9573 30.0824C51.4454 29.2085 50.2788 27.9938 49.4573 26.4382C48.6446 24.874 48.2382 23.0606 48.2382 20.9982C48.2382 18.9271 48.6446 17.1137 49.4573 15.5582C50.2788 13.9939 51.4454 12.7792 52.9573 11.914C54.4778 11.0401 56.2956 10.6031 58.4104 10.6031C60.5252 10.6031 62.3386 11.0401 63.8504 11.914C65.371 12.7792 66.5377 13.9939 67.3504 15.5582C68.1719 17.1137 68.5826 18.9271 68.5826 20.9982C68.5826 23.0606 68.1719 24.874 67.3504 26.4382C66.5377 27.9938 65.371 29.2085 63.8504 30.0824C62.3386 30.9476 60.5252 31.3801 58.4104 31.3801ZM58.4497 26.5431C59.2188 26.5431 59.8698 26.3072 60.4029 25.8352C60.936 25.3633 61.3423 24.7079 61.622 23.869C61.9104 23.03 62.0546 22.06 62.0546 20.9589C62.0546 19.8403 61.9104 18.8615 61.622 18.0226C61.3423 17.1836 60.936 16.5282 60.4029 16.0563C59.8698 15.5844 59.2188 15.3484 58.4497 15.3484C57.6545 15.3484 56.9816 15.5844 56.431 16.0563C55.8892 16.5282 55.4741 17.1836 55.1857 18.0226C54.9061 18.8615 54.7662 19.8403 54.7662 20.9589C54.7662 22.06 54.9061 23.03 55.1857 23.869C55.4741 24.7079 55.8892 25.3633 56.431 25.8352C56.9816 26.3072 57.6545 26.5431 58.4497 26.5431ZM71.8663 31V10.8653H78.0928V14.5357H78.3026C78.6696 13.2074 79.2682 12.2199 80.0984 11.5732C80.9286 10.9178 81.8943 10.59 82.9954 10.59C83.2925 10.59 83.5984 10.6119 83.913 10.6556C84.2276 10.6905 84.5204 10.7473 84.7913 10.826V16.3971C84.4854 16.2922 84.0834 16.2092 83.5853 16.1481C83.0959 16.0869 82.659 16.0563 82.2745 16.0563C81.5142 16.0563 80.8281 16.2267 80.2164 16.5675C79.6134 16.8996 79.1371 17.3671 78.7876 17.9701C78.4468 18.5644 78.2764 19.2635 78.2764 20.0675V31H71.8663ZM99.7055 10.8653V15.5844H87.0034V10.8653H99.7055ZM89.6644 6.04138H96.0745V24.6686C96.0745 25.0618 96.1356 25.3808 96.258 25.6255C96.3891 25.8615 96.5769 26.0319 96.8216 26.1367C97.0663 26.2329 97.3591 26.2809 97.6999 26.2809C97.9446 26.2809 98.2024 26.2591 98.4733 26.2154C98.753 26.163 98.9627 26.1193 99.1025 26.0843L100.073 30.7116C99.7667 30.799 99.3341 30.9082 98.7748 31.0393C98.2243 31.1704 97.5645 31.2534 96.7954 31.2884C95.2923 31.3583 94.0033 31.1835 92.9284 30.764C91.8623 30.3358 91.0452 29.6717 90.4771 28.7716C89.9178 27.8714 89.6469 26.7397 89.6644 25.3764V6.04138ZM109.819 4.15376V31H103.409V4.15376H109.819ZM117.818 38.5505C117.049 38.5505 116.324 38.4893 115.642 38.367C114.961 38.2534 114.375 38.1004 113.886 37.9082L115.301 33.2547C115.931 33.4644 116.499 33.5867 117.005 33.6217C117.521 33.6567 117.962 33.5736 118.329 33.3726C118.705 33.1804 118.994 32.8352 119.195 32.3371L119.444 31.7341L112.286 10.8653H118.998L122.708 25.2323H122.917L126.68 10.8653H133.43L125.841 32.927C125.474 34.0281 124.954 34.9981 124.281 35.837C123.617 36.6847 122.756 37.3489 121.698 37.8295C120.65 38.3102 119.356 38.5505 117.818 38.5505Z" fill="url(#paint0_radial_0_1)"/>
<path d="M139.65 6.44602V2.77699H141.41C141.595 2.77699 141.774 2.82173 141.946 2.91122C142.122 2.9974 142.266 3.12666 142.379 3.29901C142.495 3.46804 142.553 3.67685 142.553 3.92543C142.553 4.17401 142.493 4.38944 142.374 4.57173C142.258 4.75071 142.109 4.88826 141.927 4.98438C141.748 5.08049 141.562 5.12855 141.37 5.12855H140.008V4.62642H141.201C141.37 4.62642 141.521 4.56676 141.653 4.44744C141.789 4.32481 141.857 4.1508 141.857 3.92543C141.857 3.69342 141.789 3.5277 141.653 3.42827C141.521 3.32884 141.375 3.27912 141.216 3.27912H140.291V6.44602H139.65ZM141.787 4.74077L142.702 6.44602H141.986L141.096 4.74077H141.787ZM140.997 8.63352C140.447 8.63352 139.931 8.53078 139.451 8.32528C138.97 8.11979 138.548 7.83475 138.183 7.47017C137.818 7.10559 137.533 6.683 137.328 6.20241C137.122 5.72183 137.02 5.20644 137.02 4.65625C137.02 4.10606 137.122 3.59067 137.328 3.11008C137.533 2.6295 137.818 2.20691 138.183 1.84233C138.548 1.47775 138.97 1.19271 139.451 0.987216C139.931 0.781723 140.447 0.678977 140.997 0.678977C141.547 0.678977 142.062 0.781723 142.543 0.987216C143.024 1.19271 143.446 1.47775 143.811 1.84233C144.175 2.20691 144.46 2.6295 144.666 3.11008C144.871 3.59067 144.974 4.10606 144.974 4.65625C144.974 5.20644 144.871 5.72183 144.666 6.20241C144.46 6.683 144.175 7.10559 143.811 7.47017C143.446 7.83475 143.024 8.11979 142.543 8.32528C142.062 8.53078 141.547 8.63352 140.997 8.63352ZM140.997 7.89276C141.593 7.89276 142.135 7.74692 142.623 7.45526C143.113 7.16359 143.504 6.77415 143.796 6.28693C144.088 5.7964 144.233 5.25284 144.233 4.65625C144.233 4.05966 144.088 3.51776 143.796 3.03054C143.504 2.54001 143.113 2.14891 142.623 1.85724C142.135 1.56558 141.593 1.41974 140.997 1.41974C140.4 1.41974 139.857 1.56558 139.366 1.85724C138.879 2.14891 138.49 2.54001 138.198 3.03054C137.906 3.51776 137.76 4.05966 137.76 4.65625C137.76 5.25284 137.906 5.7964 138.198 6.28693C138.49 6.77415 138.879 7.16359 139.366 7.45526C139.857 7.74692 140.4 7.89276 140.997 7.89276Z" fill="white" fill-opacity="0.5"/>
<defs>
<radialGradient id="paint0_radial_0_1" cx="0" cy="0" r="1" gradientUnits="userSpaceOnUse" gradientTransform="translate(6.51266 31.3458) rotate(-3.91834) scale(128.814 5711.35)">
<stop stop-color="#EB568E"/>
<stop offset="1" stop-color="#144EE3"/>
</radialGradient>
</defs>
</svg>
